<svg width="29" height="30" viewBox="0 0 29 30" fill="none" xmlns="http://www.w3.org/2000/svg">
<path d="M22.9931 30H28.9975L29 19.0072C29 13.6107 27.8779 9.46246 21.7922 9.46246C19.4657 9.37297 17.2803 10.6168 16.1049 12.6994H16.0242V9.96089H10.26V29.9994H16.2644V20.0864C16.2644 17.4724 16.7429 14.9407 19.8702 14.9407C22.9531 14.9407 22.9931 17.9319 22.9931 20.2556V30Z" fill="white"/>
<path d="M0 3.61154C0.000345541 5.60578 1.56066 7.22214 3.48505 7.22178C4.40918 7.22161 5.29539 6.84101 5.94873 6.16371C6.60207 5.48642 6.96902 4.56791 6.96886 3.61024C6.96851 1.616 5.4082 -0.000357873 3.4838 0C1.55941 0.00035809 -0.000345315 1.6173 0 3.61154Z" fill="white"/>
<path d="M0.476599 30H6.48725V9.96089H0.476599V30Z" fill="white"/>
</svg>
