<svg width="67" height="66" viewBox="0 0 67 66" fill="none" xmlns="http://www.w3.org/2000/svg">
<g filter="url(#filter0_b_1239_4266)">
<rect y="0.905945" width="67" height="64.1807" rx="11.3012" fill="white" fill-opacity="0.04"/>
<path d="M17.1915 42.2693V37.0572H12V42.1535H17.1915V42.2693Z" fill="white"/>
<path d="M52.8241 39.2582C52.7061 39.8373 52.4702 40.5323 52.2342 41.1114C52.2342 41.2272 52.1162 41.343 52.1162 41.4589C51.6442 42.6171 51.0543 43.6595 50.4643 44.702C49.8744 45.5127 49.2844 46.3235 48.6945 47.0185C48.3405 47.3659 48.1046 47.7134 47.7506 48.0609L47.8686 47.9451C47.3966 48.4084 46.9247 48.8717 46.3347 49.335C46.0987 49.5666 45.7448 49.6824 45.5088 49.9141C45.3908 49.9141 45.2728 50.0299 45.2728 50.0299C44.5649 50.4932 43.8569 50.8407 43.031 51.1882C42.0871 51.6515 41.0252 51.999 39.9633 52.2306C38.9014 52.4623 37.7215 52.6939 36.6596 52.8097C35.3617 52.9256 34.0638 52.9256 32.648 52.6939C26.6305 51.8831 21.557 48.5242 18.4893 43.8912C19.1972 44.702 19.9051 45.3969 20.7311 45.976C22.1469 47.0185 23.7988 47.8292 25.6866 48.1767C26.5125 48.4084 27.4564 48.4084 28.2824 48.4084C28.5183 48.4084 28.7543 48.4084 28.9903 48.4084C30.2882 48.4084 31.5861 48.1767 32.766 47.7134C33.0019 47.5976 33.1199 47.5976 33.3559 47.4818C33.7099 47.3659 34.1818 47.1343 34.5358 47.0185C34.6538 47.0185 34.6538 46.9026 34.7718 46.9026C38.4294 44.9336 41.1432 41.4589 41.6151 37.0575C41.7331 36.2467 41.7331 35.3201 41.7331 34.5094C45.0368 34.5094 47.7506 36.4784 49.1665 39.1424C49.2844 39.4898 49.4024 39.8373 49.5204 40.1848C49.5204 39.9531 49.5204 39.8373 49.5204 39.6057C49.5204 38.6791 49.4024 37.8683 49.2844 36.9417C48.1046 30.803 42.5591 26.2858 35.9517 26.2858C35.1257 26.2858 34.4178 26.4016 33.5919 26.5174C33.5919 26.5174 33.5919 26.5174 33.4739 26.5174C31.1141 26.8649 29.4623 27.5598 26.8665 29.413C25.8046 30.108 23.6808 31.9612 22.0289 33.4669C21.203 34.2777 19.7871 33.4669 20.0231 32.3087C20.2591 31.2663 20.6131 30.108 21.321 28.8339C18.0173 24.3167 18.0173 19.4521 24.5067 15.1666C28.2824 12.6184 34.5358 11.9235 40.3173 14.0083C43.8569 12.1551 48.9305 12.0393 53.5321 16.9039C54.004 17.3672 53.65 18.178 52.9421 18.178C51.6442 18.178 49.8744 18.5255 48.4585 19.5679C48.5765 19.6837 48.6945 19.9154 48.9305 20.147C54.476 27.3282 54.358 34.0461 52.8241 39.2582Z" fill="white"/>
</g>
<defs>
<filter id="filter0_b_1239_4266" x="-11" y="-10.0941" width="89" height="86.1807" filterUnits="userSpaceOnUse" color-interpolation-filters="sRGB">
<feFlood flood-opacity="0" result="BackgroundImageFix"/>
<feGaussianBlur in="BackgroundImageFix" stdDeviation="5.5"/>
<feComposite in2="SourceAlpha" operator="in" result="effect1_backgroundBlur_1239_4266"/>
<feBlend mode="normal" in="SourceGraphic" in2="effect1_backgroundBlur_1239_4266" result="shape"/>
</filter>
</defs>
</svg>
